<svg xmlns="http://www.w3.org/2000/svg" xmlns:xlink="http://www.w3.org/1999/xlink" width="500" zoomAndPan="magnify" viewBox="0 0 375 374.999991" height="500" preserveAspectRatio="xMidYMid meet" version="1.0"><defs><g/><clipPath id="aaa08b634d"><path d="M 62.625 130.101562 L 148 130.101562 L 148 163.851562 L 62.625 163.851562 Z M 62.625 130.101562 " clip-rule="nonzero"/></clipPath></defs><g fill="#000000" fill-opacity="1"><g transform="translate(77.254796, 203.400133)"><g><path d="M 13.609375 0.5625 C 10.796875 0.5625 8.570312 0.109375 6.9375 -0.796875 C 5.300781 -1.710938 4.148438 -3.054688 3.484375 -4.828125 C 2.828125 -6.609375 2.5 -8.867188 2.5 -11.609375 L 2.5 -37.484375 L 10.6875 -37.484375 L 10.6875 -10.359375 C 10.6875 -8.847656 10.878906 -7.644531 11.265625 -6.75 C 11.648438 -5.863281 12.429688 -5.421875 13.609375 -5.421875 C 14.773438 -5.421875 15.539062 -5.863281 15.90625 -6.75 C 16.28125 -7.644531 16.46875 -8.847656 16.46875 -10.359375 L 16.46875 -37.484375 L 24.71875 -37.484375 L 24.71875 -11.609375 C 24.71875 -8.867188 24.375 -6.609375 23.6875 -4.828125 C 23.007812 -3.054688 21.859375 -1.710938 20.234375 -0.796875 C 18.617188 0.109375 16.410156 0.5625 13.609375 0.5625 Z M 13.609375 0.5625 "/></g></g></g><g fill="#000000" fill-opacity="1"><g transform="translate(104.465904, 203.400133)"><g><path d="M 2.78125 -37.484375 L 8.609375 -37.484375 L 16.296875 -19.4375 L 16.296875 -37.484375 L 23.140625 -37.484375 L 23.140625 0 L 17.546875 0 L 9.859375 -19.4375 L 9.859375 0 L 2.78125 0 Z M 2.78125 -37.484375 "/></g></g></g><g fill="#000000" fill-opacity="1"><g transform="translate(130.427523, 203.400133)"><g><path d="M 2.828125 -37.484375 L 11.109375 -37.484375 L 11.109375 0 L 2.828125 0 Z M 2.828125 -37.484375 "/></g></g></g><g fill="#f4c542" fill-opacity="1"><g transform="translate(144.368073, 203.400133)"><g><path d="M 3.28125 -37.484375 L 12.171875 -37.484375 L 16.296875 -15.6875 L 20.734375 -37.484375 L 29.296875 -37.484375 L 29.9375 0 L 24.0625 0 L 23.375 -24.953125 L 19.015625 0 L 13.796875 0 L 9.15625 -25.125 L 8.609375 0 L 2.640625 0 Z M 3.28125 -37.484375 "/></g></g></g><g fill="#f4c542" fill-opacity="1"><g transform="translate(176.947363, 203.400133)"><g><path d="M 8.046875 -37.484375 L 17.5 -37.484375 L 24.484375 0 L 16.84375 0 L 15.59375 -7.921875 L 10.09375 -7.921875 L 8.796875 0 L 0.96875 0 Z M 14.8125 -12.859375 L 12.8125 -27.484375 L 10.828125 -12.859375 Z M 14.8125 -12.859375 "/></g></g></g><g fill="#f4c542" fill-opacity="1"><g transform="translate(202.446206, 203.400133)"><g><path d="M 2.78125 -37.484375 L 13.09375 -37.484375 C 17.195312 -37.484375 20.296875 -36.757812 22.390625 -35.3125 C 24.492188 -33.863281 25.546875 -31.285156 25.546875 -27.578125 C 25.546875 -25.078125 25.222656 -23.085938 24.578125 -21.609375 C 23.929688 -20.128906 22.726562 -18.972656 20.96875 -18.140625 L 26.109375 0 L 17.546875 0 L 13.421875 -16.796875 L 11.0625 -16.796875 L 11.0625 0 L 2.78125 0 Z M 13.375 -21.5625 C 15.039062 -21.5625 16.203125 -22 16.859375 -22.875 C 17.523438 -23.757812 17.859375 -25.082031 17.859375 -26.84375 C 17.859375 -28.539062 17.550781 -29.8125 16.9375 -30.65625 C 16.320312 -31.507812 15.257812 -31.9375 13.75 -31.9375 L 11.0625 -31.9375 L 11.0625 -21.5625 Z M 13.375 -21.5625 "/></g></g></g><g fill="#f4c542" fill-opacity="1"><g transform="translate(230.212649, 203.400133)"><g><path d="M 2.78125 -37.484375 L 11.0625 -37.484375 L 11.0625 -22.171875 L 17.359375 -37.484375 L 25.453125 -37.484375 L 18.515625 -20.546875 L 25.78125 0 L 17.359375 0 L 11.9375 -16.5625 L 11.0625 -15.09375 L 11.0625 0 L 2.78125 0 Z M 2.78125 -37.484375 "/></g></g></g><g fill="#f4c542" fill-opacity="1"><g transform="translate(256.451936, 203.400133)"><g><path d="M 2.78125 -37.484375 L 19.625 -37.484375 L 19.625 -31.84375 L 11.0625 -31.84375 L 11.0625 -22.53125 L 17.59375 -22.53125 L 17.59375 -16.796875 L 11.0625 -16.796875 L 11.0625 -5.59375 L 19.71875 -5.59375 L 19.71875 0 L 2.78125 0 Z M 2.78125 -37.484375 "/></g></g></g><g fill="#f4c542" fill-opacity="1"><g transform="translate(277.137931, 203.400133)"><g><path d="M 6.15625 -31.328125 L 0.515625 -31.328125 L 0.515625 -37.484375 L 20.09375 -37.484375 L 20.09375 -31.328125 L 14.484375 -31.328125 L 14.484375 0 L 6.15625 0 Z M 6.15625 -31.328125 "/></g></g></g><g fill="#000000" fill-opacity="1"><g transform="translate(149.015261, 218.121452)"><g><path d="M 2.46875 0.109375 C 1.78125 0.109375 1.265625 -0.0703125 0.921875 -0.4375 C 0.578125 -0.8125 0.394531 -1.398438 0.375 -2.203125 L 1.75 -2.40625 C 1.757812 -1.945312 1.816406 -1.613281 1.921875 -1.40625 C 2.023438 -1.207031 2.179688 -1.109375 2.390625 -1.109375 C 2.660156 -1.109375 2.796875 -1.285156 2.796875 -1.640625 C 2.796875 -1.921875 2.726562 -2.164062 2.59375 -2.375 C 2.46875 -2.582031 2.269531 -2.800781 2 -3.03125 L 1.375 -3.578125 C 1.0625 -3.847656 0.816406 -4.128906 0.640625 -4.421875 C 0.472656 -4.722656 0.390625 -5.078125 0.390625 -5.484375 C 0.390625 -6.097656 0.566406 -6.566406 0.921875 -6.890625 C 1.285156 -7.222656 1.789062 -7.390625 2.4375 -7.390625 C 3.125 -7.390625 3.59375 -7.1875 3.84375 -6.78125 C 4.09375 -6.382812 4.222656 -5.894531 4.234375 -5.3125 L 2.859375 -5.140625 C 2.835938 -5.523438 2.796875 -5.796875 2.734375 -5.953125 C 2.679688 -6.117188 2.5625 -6.203125 2.375 -6.203125 C 2.238281 -6.203125 2.128906 -6.144531 2.046875 -6.03125 C 1.972656 -5.914062 1.9375 -5.785156 1.9375 -5.640625 C 1.9375 -5.398438 1.992188 -5.191406 2.109375 -5.015625 C 2.222656 -4.847656 2.398438 -4.660156 2.640625 -4.453125 L 3.25 -3.921875 C 3.601562 -3.609375 3.878906 -3.28125 4.078125 -2.9375 C 4.285156 -2.601562 4.390625 -2.203125 4.390625 -1.734375 C 4.390625 -1.390625 4.304688 -1.078125 4.140625 -0.796875 C 3.984375 -0.515625 3.757812 -0.289062 3.46875 -0.125 C 3.1875 0.03125 2.851562 0.109375 2.46875 0.109375 Z M 2.46875 0.109375 "/></g></g></g><g fill="#000000" fill-opacity="1"><g transform="translate(159.581011, 218.121452)"><g><path d="M 1.5625 -7.296875 L 3.40625 -7.296875 L 4.765625 0 L 3.28125 0 L 3.03125 -1.53125 L 1.96875 -1.53125 L 1.703125 0 L 0.1875 0 Z M 2.875 -2.5 L 2.5 -5.34375 L 2.109375 -2.5 Z M 2.875 -2.5 "/></g></g></g><g fill="#000000" fill-opacity="1"><g transform="translate(170.479752, 218.121452)"><g><path d="M 0.546875 -7.296875 L 1.671875 -7.296875 L 3.171875 -3.78125 L 3.171875 -7.296875 L 4.5 -7.296875 L 4.5 0 L 3.40625 0 L 1.921875 -3.78125 L 1.921875 0 L 0.546875 0 Z M 0.546875 -7.296875 "/></g></g></g><g fill="#000000" fill-opacity="1"><g transform="translate(181.468488, 218.121452)"><g/></g></g><g fill="#000000" fill-opacity="1"><g transform="translate(189.712281, 218.121452)"><g><path d="M 0.109375 -0.9375 C 0.347656 -0.9375 0.523438 -0.953125 0.640625 -0.984375 C 0.765625 -1.023438 0.851562 -1.097656 0.90625 -1.203125 C 0.957031 -1.304688 0.984375 -1.460938 0.984375 -1.671875 L 0.984375 -7.296875 L 2.59375 -7.296875 L 2.59375 -1.609375 C 2.59375 -1.191406 2.539062 -0.851562 2.4375 -0.59375 C 2.34375 -0.332031 2.171875 -0.132812 1.921875 0 C 1.671875 0.125 1.332031 0.1875 0.90625 0.1875 L 0.109375 0.1875 Z M 0.109375 -0.9375 "/></g></g></g><g fill="#000000" fill-opacity="1"><g transform="translate(198.79306, 218.121452)"><g><path d="M 2.640625 0.109375 C 2.097656 0.109375 1.664062 0.0195312 1.34375 -0.15625 C 1.03125 -0.332031 0.804688 -0.59375 0.671875 -0.9375 C 0.546875 -1.28125 0.484375 -1.722656 0.484375 -2.265625 L 0.484375 -7.296875 L 2.078125 -7.296875 L 2.078125 -2.015625 C 2.078125 -1.722656 2.113281 -1.488281 2.1875 -1.3125 C 2.257812 -1.132812 2.410156 -1.046875 2.640625 -1.046875 C 2.867188 -1.046875 3.019531 -1.132812 3.09375 -1.3125 C 3.164062 -1.488281 3.203125 -1.722656 3.203125 -2.015625 L 3.203125 -7.296875 L 4.8125 -7.296875 L 4.8125 -2.265625 C 4.8125 -1.722656 4.742188 -1.28125 4.609375 -0.9375 C 4.472656 -0.59375 4.25 -0.332031 3.9375 -0.15625 C 3.625 0.0195312 3.191406 0.109375 2.640625 0.109375 Z M 2.640625 0.109375 "/></g></g></g><g fill="#000000" fill-opacity="1"><g transform="translate(210.024791, 218.121452)"><g><path d="M 1.5625 -7.296875 L 3.40625 -7.296875 L 4.765625 0 L 3.28125 0 L 3.03125 -1.53125 L 1.96875 -1.53125 L 1.703125 0 L 0.1875 0 Z M 2.875 -2.5 L 2.5 -5.34375 L 2.109375 -2.5 Z M 2.875 -2.5 "/></g></g></g><g fill="#000000" fill-opacity="1"><g transform="translate(220.92353, 218.121452)"><g><path d="M 0.546875 -7.296875 L 1.671875 -7.296875 L 3.171875 -3.78125 L 3.171875 -7.296875 L 4.5 -7.296875 L 4.5 0 L 3.40625 0 L 1.921875 -3.78125 L 1.921875 0 L 0.546875 0 Z M 0.546875 -7.296875 "/></g></g></g><g clip-path="url(#aaa08b634d)"><path fill="#000000" d="M 147.390625 140.566406 L 107.398438 130.453125 C 106.054688 130.117188 104.65625 130.117188 103.34375 130.453125 L 63.320312 140.566406 C 62.621094 140.734375 62.621094 141.75 63.320312 141.921875 L 82.980469 146.890625 C 94.113281 143.558594 106.082031 143.390625 117.464844 145.421875 C 105.941406 144.125 93.804688 145.140625 82.980469 149.347656 L 82.980469 155.027344 C 82.980469 155.507812 83.429688 155.816406 83.878906 155.675781 C 90.253906 153.699219 97.582031 152.539062 105.355469 152.539062 C 113.128906 152.539062 120.457031 153.699219 126.863281 155.675781 C 127.308594 155.816406 127.730469 155.507812 127.730469 155.027344 L 127.730469 146.890625 L 136.316406 144.71875 L 136.316406 159.914062 L 136.175781 159.914062 C 135.867188 159.914062 135.617188 160.167969 135.617188 160.476562 L 135.617188 163.273438 C 135.617188 163.585938 135.867188 163.839844 136.175781 163.839844 L 137.851562 163.839844 C 138.160156 163.839844 138.414062 163.585938 138.414062 163.273438 L 138.414062 160.476562 C 138.414062 160.167969 138.160156 159.914062 137.851562 159.914062 L 137.714844 159.914062 L 137.714844 144.378906 L 147.390625 141.921875 C 148.117188 141.753906 148.117188 140.734375 147.390625 140.566406 Z M 147.390625 140.566406 " fill-opacity="1" fill-rule="nonzero"/></g></svg>