<svg version="1.1" id="Layer_1" xmlns="http://www.w3.org/2000/svg" xmlns:xlink="http://www.w3.org/1999/xlink" x="0px" y="0px"
	 width="100%" viewBox="0 0 500 500" enable-background="new 0 0 500 500" xml:space="preserve">
<path fill="#007ea7" opacity="1.000000" stroke="none" 
	d="
M183.127365,122.055779 
	C185.863556,121.246330 188.209045,120.528687 190.827255,119.727592 
	C190.827255,180.610809 190.827255,241.013748 190.827255,301.891083 
	C172.462967,295.875458 154.355728,289.944061 136.209808,284.000000 
	C136.209808,235.100067 136.209808,186.500763 136.209808,137.299713 
	C151.608597,132.284882 167.172623,127.216240 183.127365,122.055779 
z"/>
<path fill="#007ea7" opacity="1.000000" stroke="none" 
	d="
M241.077438,244.114197 
	C237.025391,244.751205 233.429504,245.553589 229.791489,245.866928 
	C225.813156,246.209579 224.328476,248.125137 224.364746,252.027222 
	C224.480927,264.523315 224.308624,277.022461 224.471619,289.517517 
	C224.512955,292.685822 223.648300,294.223297 220.421631,295.090729 
	C213.067566,297.067719 205.840012,299.515198 198.255768,301.866150 
	C198.255768,241.046936 198.255768,180.631256 198.255768,119.678207 
	C199.774948,120.063454 201.166519,120.341560 202.510803,120.768547 
	C220.095520,126.354012 237.661560,131.998734 255.266846,137.518402 
	C257.755676,138.298706 259.104309,139.126266 259.091309,142.203674 
	C258.954742,174.529190 259.005737,206.855484 258.991943,239.181564 
	C258.991669,239.823013 258.835419,240.464386 258.700775,241.499405 
	C252.955673,242.356750 247.235336,243.210403 241.077438,244.114197 
M224.381424,197.499802 
	C224.380951,202.164307 224.380783,206.828812 224.379959,211.493317 
	C224.377991,222.395096 224.373810,222.226196 235.082642,221.968353 
	C239.554230,221.860703 241.212326,220.342056 241.154282,215.744400 
	C240.941910,198.921539 241.075073,182.094391 241.068558,165.268845 
	C241.064087,153.710999 242.002670,155.576355 231.272827,153.389175 
	C225.526382,152.217804 224.412338,153.106033 224.392197,159.017242 
	C224.349594,171.511307 224.380615,184.005615 224.381424,197.499802 
z"/>
<path fill="#007ea7" opacity="1.000000" stroke="none" 
	d="
M311.010712,243.000000 
	C311.010712,228.523499 311.010712,214.547012 311.010712,200.050247 
	C329.541260,206.120392 347.663605,212.056824 365.933990,218.041733 
	C365.933990,219.641388 365.933990,220.964828 365.933990,222.288284 
	C365.933990,268.278503 365.892029,314.268860 366.019653,360.258698 
	C366.029114,363.659576 365.114288,365.106903 361.806458,366.132416 
	C346.566132,370.857269 331.427032,375.908295 316.243866,380.818359 
	C314.692841,381.319977 313.089905,381.661072 311.010712,382.208344 
	C311.010712,335.716064 311.010712,289.608032 311.010712,243.000000 
z"/>
<path fill="#007ea7" opacity="1.000000" stroke="none" 
	d="
M277.663574,209.471130 
	C286.233673,205.972748 294.739563,202.923340 303.709381,199.707626 
	C303.709381,260.989594 303.709381,321.480835 303.709381,382.542206 
	C298.378357,380.893677 293.323883,379.374939 288.297668,377.767914 
	C274.375061,373.316376 260.441040,368.897369 246.583298,364.251343 
	C245.138351,363.766937 243.141663,361.857300 243.135544,360.600525 
	C242.975220,327.633423 243.043045,294.665253 243.089645,261.697266 
	C243.090057,261.403961 243.332993,261.110962 243.617371,260.468201 
	C252.918915,259.032135 262.385223,257.286499 271.927399,256.219055 
	C276.593018,255.697144 277.674042,253.555374 277.628754,249.383743 
	C277.485870,236.230652 277.590515,223.074860 277.663574,209.471130 
M260.879486,323.499939 
	C260.868805,327.820953 260.862549,332.141998 260.846680,336.462982 
	C260.800537,349.008545 260.254059,346.330353 270.807037,348.622589 
	C276.419098,349.841553 277.580780,348.825989 277.593903,342.895020 
	C277.632111,325.611053 277.610901,308.326965 277.610504,291.042908 
	C277.610229,279.726471 277.610718,279.871552 266.487396,280.053528 
	C262.102661,280.125275 260.783356,281.875031 260.852814,286.105042 
	C261.051910,298.233551 260.897308,310.367920 260.879486,323.499939 
z"/>

<path fill="#007ea7" opacity="1.000000" stroke="none" 
	d="
M233.995743,187.000015 
	C233.995743,196.426178 233.995743,205.352341 233.995743,214.769745 
	C231.125565,212.008850 230.610214,167.328964 233.995743,162.846436 
	C233.995743,170.730972 233.995743,178.615494 233.995743,187.000015 
z"/>
<path fill="#007ea7" opacity="1.000000" stroke="none" 
	d="
M270.382538,294.045563 
	C270.382660,309.415253 270.382660,324.291870 270.382660,339.168518 
	C269.764038,339.158508 269.145416,339.148499 268.526794,339.138489 
	C268.526794,322.002747 268.526794,304.867035 268.526794,287.731323 
	C268.923401,287.669983 269.319977,287.608643 269.716583,287.547333 
	C269.938538,289.549042 270.160461,291.550781 270.382538,294.045563 
z"/>
</svg>