<svg version="1.1" id="Layer_1" xmlns="http://www.w3.org/2000/svg" xmlns:xlink="http://www.w3.org/1999/xlink" x="0px" y="0px"
	 width="100%" viewBox="0 0 496 496" enable-background="new 0 0 496 496" xml:space="preserve">
<path fill="#00a8e8" opacity="1.000000" stroke="none" 
	d="
M379.116821,240.398743 
	C384.418060,231.700089 389.807983,223.514420 396.320374,216.138474 
	C399.300140,212.763580 400.163849,209.303848 397.050354,205.026382 
	C410.482178,207.272812 423.901398,210.258163 434.906586,217.422424 
	C446.316772,224.850327 455.648254,235.471359 465.450958,245.427673 
	C460.559296,246.985275 456.100128,246.697510 451.883881,245.765594 
	C447.182434,244.726410 444.943115,246.210892 444.180878,250.731262 
	C443.960968,252.035294 443.415955,253.281296 443.134552,254.578751 
	C442.495972,257.523621 440.800934,258.884888 437.774292,258.227753 
	C431.024109,256.762207 424.182556,257.232666 417.373047,257.324005 
	C414.352478,257.364502 412.407379,256.677673 411.362457,253.488770 
	C409.381866,247.444305 406.303528,241.904495 402.434662,236.839859 
	C400.682495,234.546143 400.429993,232.737686 402.745789,230.376266 
	C410.167450,222.808258 410.069733,222.707397 402.918854,214.568893 
	C402.493439,214.084717 401.971191,213.685669 401.498169,213.250839 
	C398.153168,215.363800 398.692291,219.213440 397.129944,222.035614 
	C393.261932,229.022598 389.436462,236.033188 385.613831,243.045151 
	C384.960358,244.243759 384.278839,245.742630 382.713165,245.168365 
	C380.772705,244.456650 378.425690,243.718887 379.116821,240.398743 
z"/>
<path fill="#00a8e8" opacity="1.000000" stroke="none" 
	d="
M345.260559,224.715668 
	C349.052002,228.428543 349.052002,228.428543 355.945679,225.405304 
	C356.836304,229.579819 356.377136,233.628128 356.057312,237.622147 
	C355.910248,239.459137 354.137695,239.935776 352.636810,239.822098 
	C349.206970,239.562332 345.693359,239.825180 342.339081,238.701538 
	C342.250732,238.053360 341.951019,237.312164 342.153900,237.129700 
	C347.008911,232.762726 344.213196,229.879074 340.591064,226.530655 
	C328.667786,215.508377 315.527771,206.769882 299.415161,203.227646 
	C280.696747,199.112549 263.480957,202.871689 247.538254,213.211700 
	C246.979813,213.573898 246.444000,213.974747 245.866974,214.303787 
	C244.637863,215.004623 243.307892,216.564209 241.997604,214.793243 
	C240.721725,213.068817 241.845398,211.726013 243.353806,210.655960 
	C250.485794,205.596619 258.289337,201.929718 266.726898,199.717346 
	C298.000946,191.517120 322.987457,203.340363 345.260559,224.715668 
z"/>
<path fill="#00a8e8" opacity="1.000000" stroke="none" 
	d="
M159.927689,279.677551 
	C164.721069,279.139893 166.602554,281.135437 166.290634,285.389465 
	C166.088486,288.146729 166.946793,291.006470 165.616013,293.669647 
	C162.628250,294.687866 161.815750,291.225006 159.254684,290.897095 
	C155.085922,294.624359 150.916794,298.675171 146.416916,302.317322 
	C129.990540,315.612671 111.687111,323.781158 90.002327,322.309570 
	C76.549034,321.396576 64.460884,316.627808 53.367970,309.165131 
	C51.936905,308.202423 49.870956,306.869537 51.429729,304.790253 
	C52.975697,302.728058 54.686180,304.382111 56.181164,305.385742 
	C85.402756,325.003174 117.332047,320.548676 143.636169,298.695374 
	C147.823181,295.216827 152.079788,291.735321 155.290863,287.391785 
	C155.131317,286.847717 155.080154,286.515991 154.941483,286.226135 
	C154.115219,284.498749 151.085739,283.460449 152.179092,281.353851 
	C153.672562,278.476379 156.968170,280.105560 159.927689,279.677551 
z"/>
<path fill="#00a8e8" opacity="1.000000" stroke="none" 
	d="
M201.928467,254.834259 
	C204.497910,255.085739 206.671143,255.284592 207.087540,258.000732 
	C204.734665,260.989380 199.743927,257.084229 198.509705,261.594604 
	C197.897919,263.830261 198.092392,266.247223 200.342621,268.148895 
	C204.147141,267.856964 206.555557,263.133240 210.984543,264.138763 
	C210.494797,267.678467 204.511185,272.814270 200.459381,273.154846 
	C195.805542,273.545990 195.325424,269.696533 194.321213,266.631104 
	C192.650208,261.530365 192.796783,256.125641 192.032852,250.870544 
	C191.722046,248.732422 191.250244,246.690552 190.389999,244.774963 
	C194.310501,241.831253 205.931335,242.875488 209.652313,246.525040 
	C207.477768,249.351425 204.496582,248.251205 201.919159,247.858292 
	C198.799973,247.382782 196.604584,247.534821 196.393082,251.377792 
	C196.167877,255.469604 199.076370,254.751190 201.928467,254.834259 
z"/>
<path fill="#00a8e8" opacity="1.000000" stroke="none" 
	d="
M277.892883,257.671448 
	C281.648560,258.034515 280.440277,254.886246 281.195923,253.253067 
	C282.238068,251.000687 282.562866,248.112564 285.672974,247.986160 
	C288.574127,247.868240 289.962494,250.282791 291.040955,252.543198 
	C292.832733,256.298767 294.019958,260.272156 294.616730,264.405853 
	C294.854156,266.050354 295.219208,267.733795 292.794312,269.009155 
	C288.595337,264.917694 290.874725,257.742645 286.282898,253.821106 
	C283.965332,254.986206 284.279602,257.299469 283.617920,259.057037 
	C282.836761,261.132019 282.223633,263.341125 279.796387,263.856079 
	C277.072296,264.433960 275.696777,262.324829 274.167267,260.537018 
	C272.922272,259.081757 272.324951,256.984192 270.052643,256.198944 
	C267.267120,261.579193 272.883057,267.550018 268.808868,272.755920 
	C266.283813,265.830811 265.109497,258.805878 266.627960,251.555374 
	C267.350006,248.107620 269.751984,248.188385 271.761078,250.118118 
	C274.007141,252.275497 275.710541,254.997910 277.892883,257.671448 
z"/>
<path fill="#00a8e8" opacity="1.000000" stroke="none" 
	d="
M128.097290,271.728638 
	C124.341965,273.266479 120.707802,273.925903 118.262283,270.516541 
	C115.238670,266.301208 116.550468,261.946594 119.214439,257.967590 
	C121.483528,254.578400 124.490532,252.388626 128.827698,253.109756 
	C130.309616,253.356125 131.781067,254.066086 132.607391,255.370377 
	C136.128250,260.927948 135.562927,267.104065 135.903534,273.246246 
	C132.619370,273.721008 131.704407,267.893036 128.097290,271.728638 
M129.336823,264.541199 
	C129.454163,262.037811 131.163345,258.583008 127.738564,257.623871 
	C124.202850,256.633698 122.750427,260.060272 121.406418,262.764191 
	C121.186745,263.206116 121.111504,263.717529 120.935654,264.184052 
	C120.431046,265.522736 120.349693,266.830231 121.495972,267.868530 
	C122.779366,269.031067 124.282127,268.792511 125.708725,268.194397 
	C127.127808,267.599457 128.172623,266.519531 129.336823,264.541199 
z"/>
<path fill="#00a8e8" opacity="1.000000" stroke="none" 
	d="
M169.023132,271.169830 
	C166.528000,270.007812 165.096786,272.003021 163.258728,272.516418 
	C157.446701,274.139648 153.232422,270.860535 153.708511,264.841125 
	C153.965195,261.595734 155.267044,258.693451 157.456207,256.346191 
	C159.668976,253.973587 162.393723,252.313202 165.854813,253.103455 
	C169.375870,253.907410 171.029236,256.434204 171.544525,259.851746 
	C172.061127,263.278015 172.596054,266.701569 173.098511,270.129883 
	C173.265244,271.267426 173.599442,272.616150 172.298416,273.228058 
	C170.571030,274.040527 170.111954,272.309143 169.023132,271.169830 
M160.636658,259.118988 
	C158.894516,261.821045 155.924957,264.549591 158.872086,267.846313 
	C160.544434,269.717041 162.871750,268.544556 164.602325,266.956818 
	C167.160721,264.609558 167.414398,261.509430 166.193558,258.732147 
	C165.095032,256.233032 162.898636,257.420288 160.636658,259.118988 
z"/>
<path fill="#00a8e8" opacity="1.000000" stroke="none" 
	d="
M382.776245,264.261719 
	C383.966064,259.341949 385.868591,255.424149 390.544037,253.533691 
	C393.727722,252.246429 396.761658,252.773087 398.610535,255.449234 
	C402.350342,260.862366 401.205383,267.210541 402.210510,273.092010 
	C398.614502,273.909393 398.940857,270.724640 397.188416,270.275940 
	C387.336090,274.874176 383.302795,273.312378 382.776245,264.261719 
M395.643127,259.967743 
	C395.034882,256.819489 393.107819,256.730499 390.871674,258.121246 
	C388.645264,259.505920 387.465820,261.737946 386.903687,264.261719 
	C386.173981,267.537720 388.277222,269.502045 391.431519,268.355377 
	C394.952118,267.075500 395.960541,264.218689 395.643127,259.967743 
z"/>
<path fill="#00a8e8" opacity="1.000000" stroke="none" 
	d="
M313.177368,258.270325 
	C314.479523,263.515991 314.723083,268.414948 315.077484,273.242401 
	C311.791504,273.652618 311.950134,271.027802 310.454346,270.407898 
	C301.454041,273.600647 298.080505,273.241608 296.250183,268.893524 
	C294.293152,264.244415 297.531067,256.536499 302.498169,254.020111 
	C306.945984,251.766815 310.163391,252.939713 313.177368,258.270325 
M300.649902,268.066895 
	C301.598572,268.254242 302.600433,268.737030 303.486603,268.577393 
	C307.159637,267.915649 308.754883,265.456940 308.694702,261.857086 
	C308.665344,260.100342 309.095825,257.736877 306.595428,257.493622 
	C302.930206,257.136993 301.545349,260.060974 300.341766,262.832764 
	C299.693756,264.325043 298.985382,265.927246 300.649902,268.066895 
z"/>
<path fill="#00a8e8" opacity="1.000000" stroke="none" 
	d="
M245.554596,255.587830 
	C248.224731,261.509369 248.592026,267.368927 248.690216,273.228790 
	C245.733810,273.777008 245.642700,271.145874 243.538239,270.682159 
	C239.435516,272.053345 234.559738,275.358734 230.551575,269.901611 
	C228.095520,266.557709 229.994766,259.268860 233.763153,255.787628 
	C237.529099,252.308640 240.662201,252.170700 245.554596,255.587830 
M242.627670,260.678497 
	C242.158218,256.533600 239.832886,256.503784 237.162491,258.526489 
	C234.546555,260.507965 233.018890,263.316010 233.590317,266.733734 
	C233.897858,268.573181 235.566910,268.852509 237.123215,268.596039 
	C240.562485,268.029358 242.075943,265.640625 242.596558,262.430298 
	C242.649048,262.106567 242.624405,261.770325 242.627670,260.678497 
z"/>
<path fill="#00a8e8" opacity="1.000000" stroke="none" 
	d="
M352.096436,255.954727 
	C354.052643,262.577301 350.224640,265.738739 345.190918,268.239838 
	C347.901031,270.751648 350.470795,269.077484 352.965790,268.880615 
	C354.147430,268.787354 355.428528,268.859222 355.755157,270.305695 
	C356.080841,271.747986 354.900543,272.342682 353.859650,272.836151 
	C349.998291,274.666748 343.024597,273.099457 340.622742,269.905762 
	C337.768097,266.109955 338.087799,259.031586 341.272125,255.527588 
	C344.365448,252.123749 348.317596,252.150681 352.096436,255.954727 
M343.527039,260.639069 
	C344.086670,263.676758 345.835663,262.867249 347.386566,261.668976 
	C348.660492,260.684662 349.378448,258.955750 347.824890,257.912231 
	C345.728088,256.503784 344.607513,258.319000 343.527039,260.639069 
z"/>
<path fill="#00a8e8" opacity="1.000000" stroke="none" 
	d="
M99.968979,251.263153 
	C105.294937,246.137589 107.993118,245.573624 112.129478,248.469681 
	C111.216072,250.868240 108.720551,250.111771 107.046402,250.971359 
	C105.385544,251.824112 103.532974,252.516876 103.390755,254.642532 
	C103.235382,256.964722 105.228828,257.607788 106.928299,258.246643 
	C108.791290,258.946930 110.786148,259.313965 112.614914,260.084167 
	C116.524567,261.730743 117.436043,264.696533 114.794922,268.033783 
	C112.206657,271.304260 109.093933,273.978912 104.368149,272.864777 
	C103.713356,269.392517 106.336761,269.062714 108.032661,267.974670 
	C109.375809,267.112915 111.521896,266.775757 111.238258,264.670502 
	C110.982750,262.774139 108.997131,262.398621 107.481003,261.783661 
	C106.097549,261.222534 104.624023,260.876038 103.259445,260.277161 
	C99.298805,258.538910 97.454231,255.885498 99.968979,251.263153 
z"/>
<path fill="#00a8e8" opacity="1.000000" stroke="none" 
	d="
M322.883728,253.779602 
	C324.497803,251.244812 322.325256,247.698135 326.626923,245.598999 
	C326.768463,253.213196 329.928253,257.534912 338.070496,255.491333 
	C337.789917,259.591766 335.332855,259.272156 333.336700,259.287537 
	C329.535828,259.316864 328.715027,261.164734 329.814026,264.458710 
	C330.391327,266.188995 330.968750,267.927063 331.390656,269.698669 
	C331.697632,270.987701 331.961365,272.580444 330.221283,273.016449 
	C328.654572,273.408966 327.906494,272.057983 327.241272,270.873627 
	C327.160126,270.729126 327.063019,270.577789 327.038483,270.419525 
	C326.054749,264.075043 325.681030,257.306915 316.713104,257.066040 
	C318.114685,253.481369 320.994598,255.346191 322.883728,253.779602 
z"/>
<path fill="#00a8e8" opacity="1.000000" stroke="none" 
	d="
M224.029572,265.533539 
	C221.821426,264.966522 219.700928,264.750458 217.614944,264.353149 
	C213.680267,263.603760 211.976807,260.903809 212.949646,257.135437 
	C213.971054,253.178879 219.223740,248.909500 221.976578,249.948212 
	C223.877197,250.665344 224.747543,252.030426 222.792480,253.620819 
	C221.788101,254.437836 220.446091,254.832443 219.277328,255.456635 
	C217.869598,256.208466 216.777985,257.332458 216.996964,258.991089 
	C217.269485,261.055237 219.110397,260.711182 220.539841,260.846222 
	C221.196777,260.908234 221.867111,260.820496 222.531509,260.812744 
	C224.691681,260.787445 227.119934,260.470062 228.308594,262.753479 
	C229.689926,265.407013 227.929855,267.568451 226.418884,269.518585 
	C224.874222,271.512238 223.272415,273.811462 220.010834,272.447815 
	C219.979187,269.160522 223.982895,268.688751 224.029572,265.533539 
z"/>
<path fill="#00a8e8" opacity="1.000000" stroke="none" 
	d="
M139.545502,270.469299 
	C136.247070,264.186981 136.357468,260.052124 139.675888,256.313934 
	C143.034744,252.530167 147.143631,252.935013 149.423676,257.274353 
	C143.192734,258.659332 140.133423,261.527649 141.538773,265.470520 
	C144.204163,272.948639 148.298187,265.061310 151.978836,266.186218 
	C152.984390,268.972382 151.443863,270.837250 149.201050,272.091339 
	C145.840088,273.970673 142.525986,274.064362 139.545502,270.469299 
z"/>
<path fill="#00a8e8" opacity="1.000000" stroke="none" 
	d="
M362.145142,260.184204 
	C364.890259,261.602325 364.632996,258.827179 365.637299,257.915771 
	C368.390472,255.417267 371.669556,255.224304 373.491943,257.721619 
	C374.131653,258.598267 374.371857,259.530701 373.905029,260.514465 
	C373.498566,261.371033 372.617340,261.695862 371.805237,261.441162 
	C367.097351,259.964752 367.346252,263.229340 367.323212,266.123077 
	C367.312714,267.439911 367.590179,268.760864 367.761108,270.076813 
	C367.923859,271.329803 367.723022,272.475983 366.454163,272.999115 
	C365.446442,273.414612 364.381195,273.056000 363.738312,272.250061 
	C360.306732,267.948181 357.560181,263.365051 357.770996,257.666870 
	C360.635651,256.675385 361.029724,258.723755 362.145142,260.184204 
z"/>
<path fill="#00a8e8" opacity="1.000000" stroke="none" 
	d="
M379.469238,257.681152 
	C380.469025,261.758881 381.399353,265.435852 382.145874,269.149780 
	C382.431946,270.572937 382.630646,272.363525 380.761475,272.920288 
	C378.666107,273.544464 377.697418,271.896179 377.225464,270.301575 
	C376.144165,266.648224 375.440918,262.885803 375.854492,259.058441 
	C376.144073,256.378540 376.641296,256.216309 379.469238,257.681152 
z"/>
</svg>