<svg xmlns="http://www.w3.org/2000/svg" xmlns:xlink="http://www.w3.org/1999/xlink" width="400" zoomAndPan="magnify" viewBox="0 0 300 149.999998" height="200" preserveAspectRatio="xMidYMid meet" version="1.0"><defs><g/><clipPath id="1acb2eaacd"><path d="M 0 24.070312 L 300 24.070312 L 300 125.929688 L 0 125.929688 Z M 0 24.070312 " clip-rule="nonzero"/></clipPath></defs><g clip-path="url(#1acb2eaacd)"><path fill="#000000" d="M 0 24.070312 L 300.007812 24.070312 L 300.007812 125.929688 L 0 125.929688 Z M 0 24.070312 " fill-opacity="1" fill-rule="nonzero"/></g><g fill="#ffffff" fill-opacity="1"><g transform="translate(54.975141, 96.009662)"><g><path d="M 29.25 -55.734375 C 31.25 -55.734375 32.929688 -55.332031 34.296875 -54.53125 L 32.640625 -44.125 C 31.140625 -44.875 29.789062 -45.25 28.59375 -45.25 C 27 -45.25 25.816406 -44.726562 25.046875 -43.6875 C 24.273438 -42.644531 23.753906 -41.265625 23.484375 -39.546875 L 22.625 -34.03125 L 31.046875 -34.03125 L 29.453125 -24.078125 L 21.03125 -24.078125 L 17.25 0 L 5.171875 0 L 8.953125 -24.078125 L 4.703125 -24.078125 L 6.296875 -34.03125 L 10.546875 -34.03125 L 11.28125 -38.34375 C 11.894531 -42.5 12.753906 -45.394531 13.859375 -47.03125 C 14.972656 -48.675781 16.390625 -50.203125 18.109375 -51.609375 C 19.835938 -53.023438 21.6875 -54.066406 23.65625 -54.734375 C 25.625 -55.398438 27.488281 -55.734375 29.25 -55.734375 Z M 29.25 -55.734375 "/></g></g></g><g fill="#ffffff" fill-opacity="1"><g transform="translate(76.862047, 96.009662)"><g><path d="M 41.859375 -20.375 C 41.859375 -19 41.679688 -17.207031 41.328125 -15 L 15.921875 -15 C 15.878906 -14.769531 15.847656 -14.488281 15.828125 -14.15625 C 15.804688 -13.832031 15.796875 -13.492188 15.796875 -13.140625 C 15.796875 -9.378906 17.960938 -7.476562 22.296875 -7.4375 C 25.035156 -7.4375 27.113281 -8.472656 28.53125 -10.546875 L 40.140625 -10.546875 C 38.765625 -6.960938 36.351562 -4.117188 32.90625 -2.015625 C 29.457031 0.078125 25.476562 1.125 20.96875 1.125 C 15.613281 1.125 11.429688 -0.175781 8.421875 -2.78125 C 5.421875 -5.394531 3.921875 -8.976562 3.921875 -13.53125 C 3.921875 -17.507812 4.878906 -21.203125 6.796875 -24.609375 C 8.722656 -28.015625 11.378906 -30.625 14.765625 -32.4375 C 18.148438 -34.25 21.742188 -35.15625 25.546875 -35.15625 C 30.765625 -35.15625 34.785156 -33.882812 37.609375 -31.34375 C 40.441406 -28.800781 41.859375 -25.144531 41.859375 -20.375 Z M 31.1875 -21.953125 L 31.1875 -22.03125 C 31.132812 -23.625 30.535156 -24.90625 29.390625 -25.875 C 28.242188 -26.84375 26.828125 -27.328125 25.140625 -27.328125 C 23.367188 -27.328125 21.765625 -26.863281 20.328125 -25.9375 C 18.890625 -25.007812 17.84375 -23.679688 17.1875 -21.953125 Z M 31.1875 -21.953125 "/></g></g></g><g fill="#ffffff" fill-opacity="1"><g transform="translate(113.473682, 96.009662)"><g><path d="M 33.171875 -22.890625 C 32.109375 -23.640625 30.453125 -24.015625 28.203125 -24.015625 C 25.367188 -24.015625 23.144531 -23.195312 21.53125 -21.5625 C 19.914062 -19.925781 18.820312 -17.335938 18.25 -13.796875 L 16.0625 0 L 3.984375 0 L 9.359375 -34.03125 L 21.421875 -34.03125 L 20.5625 -28.46875 L 20.703125 -28.46875 C 23.578125 -32.488281 27.625 -34.5 32.84375 -34.5 L 34.96875 -34.5 Z M 33.171875 -22.890625 "/></g></g></g><g fill="#ffffff" fill-opacity="1"><g transform="translate(139.671873, 96.009662)"><g><path d="M 34.5 -34.03125 L 46.578125 -34.03125 L 41.203125 0 L 29.125 0 L 29.71875 -3.78125 L 29.59375 -3.78125 C 28.351562 -2.1875 26.722656 -0.96875 24.703125 -0.125 C 22.691406 0.707031 20.628906 1.125 18.515625 1.125 C 14.265625 1.125 10.78125 -0.285156 8.0625 -3.109375 C 5.34375 -5.941406 3.984375 -9.523438 3.984375 -13.859375 C 3.984375 -17.398438 4.878906 -20.816406 6.671875 -24.109375 C 8.460938 -27.410156 10.914062 -30.078125 14.03125 -32.109375 C 17.144531 -34.140625 20.519531 -35.15625 24.15625 -35.15625 C 26.1875 -35.15625 28.070312 -34.78125 29.8125 -34.03125 C 31.5625 -33.28125 32.945312 -32.175781 33.96875 -30.71875 Z M 23.21875 -9.359375 C 25.832031 -9.359375 28.007812 -10.253906 29.75 -12.046875 C 31.5 -13.835938 32.375 -15.96875 32.375 -18.4375 C 32.375 -20.207031 31.773438 -21.691406 30.578125 -22.890625 C 29.390625 -24.085938 27.734375 -24.6875 25.609375 -24.6875 C 23.171875 -24.6875 21.054688 -23.789062 19.265625 -22 C 17.484375 -20.207031 16.59375 -18.023438 16.59375 -15.453125 C 16.59375 -13.597656 17.164062 -12.117188 18.3125 -11.015625 C 19.457031 -9.910156 21.09375 -9.359375 23.21875 -9.359375 Z M 23.21875 -9.359375 "/></g></g></g><g fill="#ffffff" fill-opacity="1"><g transform="translate(181.059096, 96.009662)"><g><path d="M 24.21875 -44.25 L 22.5625 -34.03125 L 29.390625 -34.03125 L 27.796875 -24.078125 L 20.96875 -24.078125 L 17.1875 0 L 5.109375 0 L 8.890625 -24.078125 L 4.96875 -24.078125 L 6.5625 -34.03125 L 10.484375 -34.03125 L 12.140625 -44.25 Z M 24.21875 -44.25 "/></g></g></g><g fill="#ffffff" fill-opacity="1"><g transform="translate(201.088835, 96.009662)"><g><path d="M 45.453125 -19.96875 C 45.453125 -16.164062 44.410156 -12.640625 42.328125 -9.390625 C 40.242188 -6.140625 37.367188 -3.570312 33.703125 -1.6875 C 30.035156 0.1875 26.097656 1.125 21.890625 1.125 C 16.535156 1.125 12.203125 -0.234375 8.890625 -2.953125 C 5.578125 -5.671875 3.921875 -9.304688 3.921875 -13.859375 C 3.921875 -17.753906 4.96875 -21.359375 7.0625 -24.671875 C 9.164062 -27.992188 12.019531 -30.570312 15.625 -32.40625 C 19.226562 -34.238281 23.109375 -35.15625 27.265625 -35.15625 C 32.660156 -35.15625 37.039062 -33.785156 40.40625 -31.046875 C 43.769531 -28.304688 45.453125 -24.613281 45.453125 -19.96875 Z M 23.421875 -9.359375 C 26.023438 -9.359375 28.203125 -10.238281 29.953125 -12 C 31.703125 -13.769531 32.578125 -15.914062 32.578125 -18.4375 C 32.578125 -20.25 31.96875 -21.742188 30.75 -22.921875 C 29.53125 -24.097656 27.882812 -24.6875 25.8125 -24.6875 C 23.332031 -24.6875 21.207031 -23.800781 19.4375 -22.03125 C 17.664062 -20.257812 16.78125 -18.066406 16.78125 -15.453125 C 16.78125 -13.597656 17.363281 -12.117188 18.53125 -11.015625 C 19.707031 -9.910156 21.335938 -9.359375 23.421875 -9.359375 Z M 23.421875 -9.359375 "/></g></g></g></svg>