<svg version="1.1" id="Layer_1" xmlns="http://www.w3.org/2000/svg" xmlns:xlink="http://www.w3.org/1999/xlink" x="0px" y="0px"
	 width="100%" viewBox="0 0 500 500" enable-background="new 0 0 500 500" xml:space="preserve">
<path fill="#00a8e8" opacity="1.000000" stroke="none" 
	d="
M268.531342,1.000001 
	C274.988647,1.914371 280.994781,2.727425 286.963318,3.758240 
	C383.470947,20.425877 449.468292,74.680183 485.875488,165.335678 
	C486.783264,167.596130 487.383606,169.980042 488.299255,172.844223 
	C486.179352,172.844223 484.711548,172.843521 483.243774,172.844315 
	C388.266510,172.896545 293.289215,172.942841 198.311935,173.010162 
	C188.311142,173.017258 180.010437,169.771210 174.702026,160.827393 
	C165.097076,144.644592 175.456741,124.638199 194.198654,123.124352 
	C196.187256,122.963730 198.194580,123.003365 200.193222,123.003197 
	C266.178345,122.997665 332.163452,122.998619 398.148560,122.998619 
	C399.925049,122.998619 401.701538,122.998619 403.478027,122.998619 
	C403.738129,122.619827 403.998199,122.241043 404.258270,121.862251 
	C397.641876,115.225113 391.352081,108.219559 384.352753,102.014366 
	C353.364441,74.542061 317.420319,57.793114 276.137146,52.901745 
	C220.716492,46.335320 170.692902,59.842369 126.828506,94.310646 
	C89.902573,123.326721 65.843307,161.108109 56.228130,207.111893 
	C41.199947,279.014160 59.876953,341.706665 111.401108,393.955994 
	C143.786240,426.796967 183.957535,444.998474 229.608398,449.742462 
	C324.704041,459.624634 409.496185,404.523499 440.830994,313.318848 
	C448.034637,292.351593 450.892181,270.643738 450.960907,248.520111 
	C450.997375,236.772919 457.411774,227.622192 467.937836,224.001511 
	C478.100555,220.505798 489.478119,223.822174 495.966522,232.726120 
	C498.047424,235.581711 498.929230,239.311081 500.679810,242.820343 
	C501.000000,252.020889 501.000000,261.041779 500.641968,270.733765 
	C497.095581,304.512970 488.833984,336.240509 473.026703,365.607910 
	C432.910645,440.137085 370.816132,484.162811 287.397736,498.195801 
	C281.605164,499.170227 275.799561,500.067108 270.000000,501.000000 
	C257.312439,501.000000 244.624878,501.000000 231.269775,500.639709 
	C218.306137,498.306152 205.831345,497.090607 193.742050,494.240173 
	C93.604401,470.629486 19.042274,389.300201 3.771526,287.471313 
	C2.848168,281.314148 1.923863,275.157104 1.000000,269.000000 
	C1.000000,256.979095 1.000000,244.958206 1.343320,232.240051 
	C3.897347,217.940781 5.267737,204.138550 8.453153,190.768753 
	C31.648884,93.411888 115.022057,17.995409 214.598953,3.786233 
	C220.413437,2.956532 226.200287,1.933216 232.000000,1.000001 
	C244.020889,1.000000 256.041779,1.000000 268.531342,1.000001 
z"/>
<path fill="#00a8e8" opacity="1.000000" stroke="none" 
	d="
M261.000000,272.828125 
	C247.551346,272.827911 234.602692,272.827911 221.001633,272.827911 
	C221.001633,275.332611 221.001633,277.276459 221.001617,279.220276 
	C221.001526,304.709961 221.015839,330.199615 220.995880,355.689301 
	C220.984100,370.723053 213.168411,380.711792 198.300339,382.470367 
	C185.103378,384.031311 171.598587,375.249573 171.281235,359.371796 
	C170.522308,321.402313 170.920715,283.407379 171.069183,245.423569 
	C171.110245,234.917755 180.700012,224.552673 191.174210,223.066132 
	C195.105103,222.508224 199.107132,222.216980 203.077545,222.209030 
	C236.064041,222.142990 269.050781,222.148575 302.037354,222.188080 
	C310.252045,222.197922 317.940399,223.959183 323.833038,230.226242 
	C330.687408,237.516159 332.925079,246.105194 329.503967,255.564621 
	C326.139740,264.866852 319.500397,271.350800 309.394897,271.895996 
	C293.459564,272.755646 277.467834,272.570923 261.000000,272.828125 
z"/>
</svg>